<svg width="37" height="27" viewBox="0 0 37 27" fill="none" xmlns="http://www.w3.org/2000/svg">
<path fill-rule="evenodd" clip-rule="evenodd" d="M0.929274 26.7304H0.813272C0.813272 26.6857 0.78422 26.6183 0.78422 26.5957C0.78422 26.5734 0.784219 26.5287 0.697061 26.5287H0.522743V26.7304H0.435584V26.2593H0.697061C0.813272 26.2593 0.900221 26.2819 0.900221 26.3713C0.900221 26.4387 0.871168 26.4613 0.842325 26.4834C0.871378 26.5061 0.900221 26.5285 0.900221 26.5734V26.6631C0.900221 26.6857 0.900221 26.6857 0.929274 26.6857V26.7304ZM0.813272 26.394C0.813272 26.3266 0.755167 26.3266 0.726114 26.3266H0.522743V26.4613H0.697061C0.755167 26.4613 0.813272 26.4387 0.813272 26.394ZM1.30696 26.4836C1.30696 26.2145 1.01664 25.9898 0.638955 25.9898C0.29053 25.9898 0 26.2145 0 26.4836C0 26.7753 0.29053 27 0.638955 27C1.01643 26.9998 1.30696 26.7753 1.30696 26.4836ZM1.2198 26.4836C1.2198 26.7306 0.958537 26.91 0.638955 26.91C0.319372 26.91 0.0871589 26.7304 0.0871589 26.4836C0.0871589 26.2593 0.319583 26.0572 0.638955 26.0572C0.958327 26.0572 1.2198 26.2593 1.2198 26.4836ZM37 17.4165C37 18.0899 36.4482 18.4037 35.4606 18.4037H33.5732V17.7303H35.4606C35.6349 17.7303 35.7802 17.708 35.8385 17.6633C35.8964 17.6182 35.9545 17.5509 35.9545 17.4612C35.9545 17.3712 35.8966 17.2816 35.8385 17.2369C35.7802 17.1918 35.6642 17.1695 35.4899 17.1695C34.5899 17.1469 33.457 17.1918 33.457 16.2044C33.457 15.7554 33.8345 15.2616 34.8509 15.2616H36.7966V15.935H34.996C34.8221 15.935 34.7057 15.935 34.6185 15.9797C34.5313 16.0471 34.4734 16.1144 34.4734 16.2267C34.4734 16.3389 34.5606 16.4063 34.6766 16.4514C34.793 16.4737 34.9092 16.4961 35.0545 16.4961H35.577C36.1288 16.4961 36.4775 16.5857 36.7099 16.7431C36.8838 16.9001 37 17.1023 37 17.4165ZM32.905 16.7431C32.6726 16.5857 32.3239 16.4961 31.7722 16.4961H31.2496C31.1046 16.4961 30.9881 16.4735 30.8721 16.4514C30.7557 16.4063 30.669 16.3389 30.669 16.2267C30.669 16.1144 30.6978 16.0471 30.814 15.9797C30.9012 15.935 31.0172 15.935 31.1915 15.935H32.9922V15.2616H31.0465C30.0008 15.2616 29.6521 15.7554 29.6521 16.2044C29.6521 17.1916 30.785 17.1469 31.6854 17.1695C31.8593 17.1695 31.9757 17.1918 32.0336 17.2369C32.0915 17.2816 32.1501 17.3712 32.1501 17.4612C32.1501 17.5509 32.0917 17.6182 32.0336 17.6633C31.9465 17.708 31.8305 17.7303 31.6562 17.7303H29.7683V18.4037H31.6562C32.6433 18.4037 33.1953 18.0897 33.1953 17.4165C33.1953 17.1023 33.0793 16.9001 32.905 16.7431ZM29.1875 17.7531H26.8936V17.1246H29.1296V16.4964H26.8936V15.9127H29.1875V15.2619H25.935V18.4039H29.1875V17.7531ZM24.8893 15.4191C24.5698 15.2844 24.1923 15.2617 23.6986 15.2617H21.4626V18.4037H22.4497V17.2591H23.4954C23.8436 17.2591 24.0472 17.2818 24.1925 17.3939C24.3668 17.5509 24.3668 17.8203 24.3668 18.0223V18.4037H25.3249V17.7977C25.3249 17.506 25.2961 17.3712 25.1799 17.2142C25.0927 17.1243 24.9188 17.0122 24.6864 16.9448C24.9474 16.8778 25.3834 16.6084 25.3834 16.1144C25.3832 15.7555 25.2089 15.5535 24.8893 15.4191ZM19.3714 15.2617H16.2638L15.0149 16.2942L13.8242 15.2617H9.90348V18.4037H13.7663L15.0151 17.3712L16.2059 18.4037H18.0937V17.3491H19.3135C20.1556 17.3491 20.9981 17.1695 20.9981 16.2942C20.9979 15.4414 20.1265 15.2617 19.3714 15.2617ZM24.1051 16.5636C23.9601 16.6084 23.8148 16.6084 23.6405 16.6084L22.4497 16.631V15.9125H23.6405C23.8148 15.9125 23.9891 15.9125 24.1051 15.9799C24.2215 16.0249 24.3083 16.1146 24.3083 16.2493C24.3083 16.384 24.2215 16.4963 24.1051 16.5636ZM19.3714 16.7206H18.0935V15.9125H19.3714C19.72 15.9125 19.9522 16.0249 19.9522 16.2942C19.9522 16.5636 19.7198 16.7206 19.3714 16.7206ZM15.6248 16.8327L17.1349 15.5985V18.1346L15.6248 16.8327ZM13.2724 17.7531H10.8618V17.1246H13.0109V16.4964H10.8618V15.9127H13.3014L14.376 16.8329L13.2724 17.7531ZM34.2989 12.9949H32.905L31.0753 10.6383V12.9949H29.1008L28.7229 12.2991H26.69L26.3125 12.9949H25.1797C24.715 12.9949 24.1051 12.9051 23.7569 12.6357C23.4373 12.3664 23.263 12.0074 23.263 11.4462C23.263 10.9749 23.3502 10.5485 23.7855 10.2119C24.0759 9.96489 24.5988 9.85279 25.2666 9.85279H26.1959V10.5262H25.2666C24.9184 10.5262 24.7148 10.5711 24.5116 10.7058C24.3373 10.8405 24.2502 11.0873 24.2502 11.4239C24.2502 11.7605 24.3373 12.0075 24.5116 12.1647C24.6567 12.2768 24.9184 12.3217 25.1794 12.3217H25.6152L27.0092 9.85295H28.4614L30.0877 12.8155V9.85279H31.598L33.3115 12.0298V9.85279H34.2987V12.9949H34.2989ZM22.7693 9.85279H21.7821V12.9949H22.7693V9.85279ZM20.7072 9.9875C20.3876 9.85279 20.0394 9.85279 19.5457 9.85279H17.3093V12.9949H18.2676V11.8502H19.3131C19.6617 11.8502 19.8941 11.8726 20.0392 11.9849C20.2135 12.1421 20.1842 12.4115 20.1842 12.5909V12.9949H21.1714V12.3664C21.1714 12.0972 21.1426 11.9625 20.9975 11.8053C20.9103 11.7155 20.736 11.6032 20.5329 11.536C20.7939 11.4462 21.2299 11.1994 21.2299 10.7056C21.2301 10.3466 21.0266 10.1445 20.7072 9.9875ZM16.6122 12.3441H14.3469V11.7156H16.5831V11.0649H14.3469V10.5037H16.6122V9.85295H13.3595V12.9951H16.6122V12.3441ZM12.6334 9.85279H11.0361L9.84538 11.9849L8.56747 9.85279H6.99924V12.8153L5.34385 9.85279H3.89183L2.14929 12.9949H3.19477L3.57225 12.2991H5.60512L5.98259 12.9949H7.95757V10.5262L9.38053 12.9949H10.2226L11.6458 10.5262V12.9949H12.6332L12.6334 9.85279ZM28.3746 11.6258L27.7064 10.3915L27.0386 11.6258H28.3746ZM19.9522 11.1322C19.8072 11.1996 19.6619 11.1996 19.4585 11.1996H18.2676V10.5039H19.4583C19.6326 10.5039 19.8356 10.5039 19.952 10.5488C20.068 10.6162 20.1263 10.706 20.1263 10.8405C20.1263 10.9751 20.0682 11.0872 19.9522 11.1322ZM3.92068 11.6258L4.58868 10.3915L5.25669 11.6258H3.92068ZM36.7678 0H2.12002V11.3117L3.31077 9.22446H5.83733L6.18597 9.7407V9.22446H9.14832L9.81632 10.3466L10.4553 9.22446H19.8941C20.3295 9.22446 20.707 9.29182 20.9977 9.47127V9.22446H23.5824V9.47127C24.0177 9.29166 24.5695 9.22446 25.2087 9.22446H28.9551L29.3037 9.7407V9.22446H32.0627L32.4694 9.7407V9.22446H35.1701V13.6234H32.4404L31.9178 12.9502V13.6234H28.5197L28.1422 12.9053H27.2997L26.9222 13.6234H25.1508C24.4538 13.6234 23.9308 13.4887 23.5826 13.3541V13.6234H19.3714V12.6134C19.3714 12.4787 19.3423 12.4562 19.2261 12.4562H19.0811V13.6232H10.949V13.0621L10.6586 13.6232H8.94515L8.65484 13.0846V13.6232H5.3729L5.02448 12.9051H4.18215L3.80468 13.6232H2.12002V26.8876H36.7678V18.8301C36.3903 18.9648 35.8674 19.0322 35.3446 19.0322H32.8178V18.7628C32.5275 18.9425 32.0046 19.0322 31.5111 19.0322H23.5533V18.0223C23.5533 17.8876 23.5245 17.8876 23.379 17.8876H23.234V19.0322H20.62V17.8427C20.1847 17.9997 19.6908 17.9997 19.2552 17.9997H18.9646V19.0322H15.7701L15.0151 18.3588L14.173 19.0322H9.0321V14.6334H14.2597L15.0149 15.3065L15.8282 14.6334H19.3423C19.7486 14.6334 20.4169 14.6782 20.7072 14.9025V14.6334H23.8436C24.1632 14.6334 24.7733 14.6782 25.1797 14.9025V14.6334H29.9136V14.9027C30.1751 14.7231 30.669 14.6336 31.1044 14.6336H33.7471V14.9027C34.0379 14.7457 34.4442 14.6336 34.9671 14.6336H36.7678V0Z" fill="#0077A6"/>
</svg>
