<svg width="26" height="30" viewBox="0 0 26 30" fill="none" xmlns="http://www.w3.org/2000/svg">
<path d="M24.2963 5.38068V29.0618H1.70361V5.38068L10.0232 2.81104H15.9719L22.6541 4.87431L24.2963 5.38068Z" fill="#B6B6B6"/>
<path d="M26 4.01309L25.929 4.77971L25.7492 6.71527L25.5741 7.28788L24.2963 6.89509L21.4994 6.02902L14.2541 3.79058L13 3.40256L1.70364 6.89509L0.425937 7.28788L0.250829 6.71527L0 4.01309L1.70364 3.48776L10.0233 0.918058L13 0L15.972 0.918058L16.8522 1.19256L24.1023 3.42617L24.2963 3.48776L24.7885 3.6392L26 4.01309Z" fill="#B6B6B6"/>
<path opacity="0.1" d="M25.7488 6.71626L25.5719 7.28717L24.297 6.89313V7.77946L12.9994 4.28972L1.70288 7.77946V6.89313L0.427967 7.28717L0.251099 6.71626L1.70288 6.26768L10.0249 3.69594L12.8935 2.80961L12.9994 2.77686L13.1053 2.80961L15.9739 3.69594L24.297 6.26768L25.7488 6.71626Z" fill="black"/>
<path d="M13 10.8424C14.3263 10.8424 15.4014 9.76721 15.4014 8.44095C15.4014 7.1147 14.3263 6.03955 13 6.03955C11.6738 6.03955 10.5986 7.1147 10.5986 8.44095C10.5986 9.76721 11.6738 10.8424 13 10.8424Z" fill="#565656"/>
<path d="M24.297 11.6797H1.70288V12.3346H24.297V11.6797Z" fill="#565656"/>
<path d="M24.2962 20.3401H1.70361V20.9931H24.2962V20.3401Z" fill="#565656"/>
<path d="M5.84539 14.1262H4.37488V15.56H5.84539V14.1262Z" fill="white"/>
<path d="M7.65326 14.1262H6.18274V15.56H7.65326V14.1262Z" fill="white"/>
<path d="M5.84539 15.8445H4.37488V19.0247H5.84539V15.8445Z" fill="white"/>
<path d="M7.65326 15.8445H6.18274V19.0247H7.65326V15.8445Z" fill="white"/>
<path d="M10.5026 14.1262H9.0321V15.56H10.5026V14.1262Z" fill="white"/>
<path d="M12.3105 14.1262H10.84V15.56H12.3105V14.1262Z" fill="white"/>
<path d="M10.5026 15.8445H9.0321V19.0247H10.5026V15.8445Z" fill="white"/>
<path d="M12.3105 15.8445H10.84V19.0247H12.3105V15.8445Z" fill="white"/>
<path d="M15.16 14.1262H13.6895V15.56H15.16V14.1262Z" fill="white"/>
<path d="M16.9678 14.1262H15.4973V15.56H16.9678V14.1262Z" fill="white"/>
<path d="M15.16 15.8445H13.6895V19.0247H15.16V15.8445Z" fill="white"/>
<path d="M16.9678 15.8445H15.4973V19.0247H16.9678V15.8445Z" fill="white"/>
<path d="M19.8173 14.1262H18.3468V15.56H19.8173V14.1262Z" fill="white"/>
<path d="M21.6253 14.1262H20.1548V15.56H21.6253V14.1262Z" fill="white"/>
<path d="M19.8173 15.8445H18.3468V19.0247H19.8173V15.8445Z" fill="white"/>
<path d="M21.6253 15.8445H20.1548V19.0247H21.6253V15.8445Z" fill="white"/>
<path d="M8.01653 24.2598V29.0594H4.28015V24.2598C4.28015 23.5372 4.8707 22.9456 5.5944 22.9456H6.70233C7.4249 22.9456 8.01653 23.5372 8.01653 24.2598Z" fill="#565656"/>
<path d="M14.8683 24.2598V29.0594H11.132V24.2598C11.132 23.5372 11.7236 22.9456 12.4462 22.9456H13.5541C14.2768 22.9456 14.8683 23.5372 14.8683 24.2598Z" fill="#565656"/>
<path d="M21.72 24.2598V29.0594H17.9835V24.2598C17.9835 23.5372 18.5751 22.9456 19.2978 22.9456H20.4057C21.1294 22.9456 21.72 23.5372 21.72 24.2598Z" fill="#565656"/>
<path opacity="0.08" d="M26 4.01318L25.929 4.7798L25.7491 6.71536L25.574 7.28797L24.2963 6.89518V29.0572H1.70361V25.8249L11.9683 15.5603L12.309 15.2196L15.1958 12.3327L24.1023 3.42627L24.2963 3.48786L24.7885 3.63929L26 4.01318Z" fill="black"/>
</svg>
