<svg width="46" height="46" viewBox="0 0 46 46" fill="none" xmlns="http://www.w3.org/2000/svg">
<g clip-path="url(#clip0_1_1204)">
<path d="M14.8274 45.2011C17.1672 45.2011 19.0639 43.3043 19.0639 40.9646C19.0639 38.6249 17.1672 36.7281 14.8274 36.7281C12.4878 36.7281 10.5911 38.6249 10.5911 40.9646C10.5911 43.3043 12.4878 45.2011 14.8274 45.2011Z" fill="#FF0024"/>
<path d="M38.1272 45.2011C40.467 45.2011 42.3636 43.3043 42.3636 40.9646C42.3636 38.6249 40.467 36.7281 38.1272 36.7281C35.7875 36.7281 33.8909 38.6249 33.8909 40.9646C33.8909 43.3043 35.7875 45.2011 38.1272 45.2011Z" fill="#FF0024"/>
<path fill-rule="evenodd" clip-rule="evenodd" d="M43.8811 9.19155H10.7053L9.5006 3.99792C9.27793 3.03794 8.78082 2.25141 8.00928 1.63835C7.23773 1.02528 6.35923 0.71875 5.37376 0.71875H2.1182C0.94835 0.71875 0 1.6671 0 2.83695C0 4.00679 0.94835 4.95515 2.1182 4.95515H5.37376L6.35642 9.19155H6.3546L11.81 32.9656C11.9204 33.4467 12.1687 33.841 12.5548 34.1487C12.9409 34.4562 13.3809 34.61 13.8745 34.61H38.5345C39.0196 34.61 39.4535 34.4609 39.8361 34.1628C40.2188 33.8648 40.4695 33.4805 40.5884 33.01L45.9349 11.8282C46.0148 11.5115 46.0211 11.1934 45.954 10.8739C45.8867 10.5543 45.7528 10.2657 45.5521 10.0081C45.3514 9.75046 45.1044 9.54996 44.8109 9.4066C44.5177 9.26323 44.2077 9.19155 43.8811 9.19155Z" fill="url(#paint0_linear_1_1204)"/>
</g>
<defs>
<linearGradient id="paint0_linear_1_1204" x1="0" y1="0.71875" x2="28.3394" y2="43.3561" gradientUnits="userSpaceOnUse">
<stop offset="1" stop-color="#FF4900"/>
</linearGradient>
<clipPath id="clip0_1_1204">
<rect width="46" height="46" fill="white"/>
</clipPath>
</defs>
</svg>
