<svg width="71" height="16" viewBox="0 0 71 16" fill="none" xmlns="http://www.w3.org/2000/svg">
<g clip-path="url(#clip0_1_3628)">
<path d="M70.9998 0V16H0V0H70.9998Z" fill="#FFCE00"/>
<path d="M12.4858 2.87329L10.2174 6.02032H22.5804C23.2054 6.02032 23.1971 6.26278 22.8917 6.68528C22.5816 7.11431 22.0624 7.8602 21.7464 8.29572C21.5861 8.5169 21.2962 8.91965 22.2569 8.91965H27.3126C27.3126 8.91965 28.1275 7.78732 28.8105 6.84069C29.7399 5.55301 28.8911 2.87329 25.5689 2.87329H12.4858Z" fill="#FF0024"/>
<path d="M9.29954 13.1259L13.8557 6.8042C13.8557 6.8042 18.9066 6.80425 19.5098 6.80425C20.1347 6.80425 20.1265 7.04672 19.8211 7.46926C19.511 7.89831 18.9832 8.63625 18.6673 9.07199C18.5069 9.29303 18.217 9.69652 19.1776 9.69652H26.7521C26.1223 10.5777 24.0789 13.1259 20.4098 13.1259H9.29954Z" fill="#FF0024"/>
<path d="M35.3932 9.6958L32.9225 13.1259H26.4049C26.4049 13.1259 28.8742 9.69654 28.8764 9.69654L35.3932 9.6958Z" fill="#FF0024"/>
<path d="M45.3781 8.91969H29.4364L33.7957 2.87329H40.3114L37.8128 6.34043H40.7213L43.2209 2.87329H49.7359L45.3781 8.91969Z" fill="#FF0024"/>
<path d="M44.8183 9.69653L42.3464 13.1259H35.8312C35.8312 13.1259 38.3007 9.69653 38.3029 9.69653H44.8183Z" fill="#FF0024"/>
<path d="M0 11.0488H9.60134L9.07673 11.7775H0V11.0488Z" fill="#FF0024"/>
<path d="M0 9.69629H10.5768L10.0513 10.4239H0V9.69629Z" fill="#FF0024"/>
<path d="M0 12.4019H8.62638L8.10439 13.1258H0V12.4019Z" fill="#FF0024"/>
<path d="M71 11.7775H61.4354L61.9603 11.0488H71V11.7775Z" fill="#FF0024"/>
<path d="M70.9999 13.1258L60.463 13.1267L60.9849 12.4019H70.9999V13.1258Z" fill="#FF0024"/>
<path d="M62.9345 9.69629H71V10.4243L62.4104 10.4248L62.9345 9.69629Z" fill="#FF0024"/>
<path d="M58.7595 2.87329L54.4007 8.91965H47.4968C47.4968 8.91965 51.8563 2.87329 51.8585 2.87329H58.7595Z" fill="#FF0024"/>
<path d="M46.9379 9.69653C46.9379 9.69653 46.4617 10.3612 46.2303 10.6806C45.4119 11.81 46.1354 13.1259 48.8062 13.1259H59.27L61.7417 9.69653H46.9379Z" fill="#FF0024"/>
</g>
<defs>
<clipPath id="clip0_1_3628">
<rect width="71" height="16" fill="white"/>
</clipPath>
</defs>
</svg>
