<svg width="34" height="34" viewBox="0 0 34 34" fill="none" xmlns="http://www.w3.org/2000/svg">
<circle cx="17" cy="17" r="17" fill="#FF0024"/>
<g clip-path="url(#clip0_118_6481)">
<path fill-rule="evenodd" clip-rule="evenodd" d="M22.7022 10.348C21.8286 9.47449 20.4123 9.47448 19.5387 10.348L8.98267 20.9041C8.67041 21.2164 8.45756 21.6141 8.37096 22.0471L7.93323 24.2358C7.72454 25.2792 8.64451 26.1992 9.68795 25.9905L11.8766 25.5528C12.3096 25.4662 12.7073 25.2533 13.0196 24.9411L23.5757 14.3849C24.4492 13.5114 24.4492 12.0951 23.5757 11.2216L22.7022 10.348ZM20.5932 11.4025C20.8844 11.1113 21.3565 11.1113 21.6477 11.4025L22.5212 12.276C22.8124 12.5672 22.8124 13.0393 22.5212 13.3305L20.5292 15.3225L18.6013 13.3945L20.5932 11.4025ZM17.5468 14.4489L10.0371 21.9586C9.93304 22.0627 9.8621 22.1953 9.83323 22.3396L9.3955 24.5282L11.5841 24.0905C11.7285 24.0616 11.861 23.9907 11.9651 23.8866L19.4748 16.3769L17.5468 14.4489Z" fill="white"/>
</g>
<defs>
<clipPath id="clip0_118_6481">
<rect width="17.8947" height="17.8947" fill="white" transform="translate(7.15784 8.94727)"/>
</clipPath>
</defs>
</svg>
