<svg width="51" height="18" viewBox="0 0 51 18" fill="none" xmlns="http://www.w3.org/2000/svg">
<path fill-rule="evenodd" clip-rule="evenodd" d="M8.20576 4.0048C8.76301 3.82233 9.34428 3.73109 9.93034 3.73109C12.5677 3.73109 14.7678 5.56543 15.2674 8L19 7.2557C18.1497 3.11645 14.4123 0 9.93515 0C8.90713 0 7.92234 0.163265 7 0.465786L8.20576 4.0048Z" fill="#FFCA05"/>
<path fill-rule="evenodd" clip-rule="evenodd" d="M3.31765 15L6 12.5303C4.8 11.665 4.04874 10.405 4.04874 8.9979C4.04874 7.59083 4.80504 6.33077 6 5.46972L3.31765 3C1.28571 4.47007 0 6.61218 0 9.0021C0 11.3878 1.28571 13.5341 3.31765 15Z" fill="#00A4DF"/>
<path fill-rule="evenodd" clip-rule="evenodd" d="M15.2704 10C14.7664 12.4331 12.568 14.2663 9.9376 14.2663C9.352 14.2663 8.7664 14.1752 8.2096 13.9928L7 17.5345C7.9216 17.8368 8.9104 18 9.9376 18C14.4112 18 18.1408 14.8902 19 10.7534L15.2704 10Z" fill="#EE4123"/>
<path fill-rule="evenodd" clip-rule="evenodd" d="M30.7519 11.0651L30.6352 10.9965C30.3104 11.5012 29.8131 11.9128 29.1788 12.1775C27.9761 12.6871 26.8597 12.5548 26.0579 11.8736L25.9868 11.9815H25.9817L24.6166 13.966C24.9566 14.1964 25.322 14.3875 25.7026 14.5443C27.2149 15.1519 28.7576 15.1274 30.28 14.4806C31.3812 14.02 32.2439 13.3094 32.8376 12.4176L30.7519 11.0651ZM26.4841 6.16976C25.2104 6.69899 24.5557 7.85544 24.6928 9.21281L30.0821 6.9636C29.1534 5.91005 27.9507 5.56213 26.4841 6.16976ZM22.9065 12.2167C22.7542 11.9716 22.6172 11.7168 22.4954 11.4522C21.8712 10.0508 21.8458 8.60518 22.3685 7.21351C22.9471 5.68953 24.0483 4.51838 25.4743 3.92545C27.2656 3.17571 29.2498 3.32272 30.9651 4.31257C32.0561 4.9202 32.8275 5.85614 33.4162 7.18411C33.4923 7.35562 33.5583 7.53693 33.6192 7.68883L22.9065 12.2167ZM37.3694 1V12.0305L39.1404 12.7263L38.1356 15L36.1819 14.216C35.7455 14.0298 35.446 13.7504 35.2177 13.4319C34.9995 13.1085 34.8422 12.6626 34.8422 12.0648V1H37.3694ZM41.9518 9.22261C41.9518 10.1243 42.3476 10.9818 43.0479 11.5747L41.2363 13.5397C39.9575 12.4421 39.2318 10.8691 39.2368 9.22261C39.2368 7.57123 39.9676 6.00315 41.2464 4.9104L43.0581 6.87049C42.3527 7.46342 41.9518 8.32097 41.9518 9.22261ZM45.1742 12.3539C46.7322 12.3539 48.0313 11.2856 48.3358 9.85964L51 10.3889C50.4469 13.0154 48.0465 14.9951 45.1742 14.9902C44.5348 14.9902 43.8954 14.8873 43.2865 14.6913L44.1542 12.1922C44.4739 12.2951 44.8139 12.3539 45.1742 12.3539ZM45.1793 3.45992C48.0516 3.45992 50.4519 5.44452 51 8.07595L48.3358 8.60028C48.0364 7.14491 46.7119 6.09626 45.1793 6.09626C44.8342 6.09626 44.4841 6.15016 44.1593 6.25796L43.3017 3.75884C43.9056 3.55793 44.5399 3.45992 45.1793 3.45992Z" fill="black"/>
</svg>
