<svg width="62" height="62" viewBox="0 0 62 62" fill="none" xmlns="http://www.w3.org/2000/svg">
<g clip-path="url(#clip0_121_5041)">
<path d="M28.7649 39.0435C28.8717 40.0767 29.7439 40.8458 30.7602 40.8458C30.8293 40.8458 30.8989 40.8423 30.9691 40.8351C32.0724 40.721 32.8744 39.7342 32.7603 38.6309L31.834 29.6684C31.7199 28.5651 30.7326 27.7641 29.6298 27.8771C28.5265 27.9912 27.7245 28.978 27.8386 30.0813L28.7649 39.0435Z" fill="black"/>
<path d="M41.334 40.8351C41.4041 40.8423 41.4737 40.8458 41.5428 40.8458C42.5594 40.8458 43.4313 40.0767 43.5381 39.0435L44.4642 30.0811C44.5783 28.9775 43.7762 27.9907 42.6729 27.8769C41.5688 27.7641 40.5825 28.5651 40.4685 29.6681L39.5424 38.6306C39.4283 39.7342 40.2304 40.721 41.334 40.8351Z" fill="black"/>
<path d="M25.7825 49.5651C22.3545 49.5651 19.5657 52.3539 19.5657 55.7819C19.5657 59.2107 22.3545 62.0003 25.7825 62.0003C29.2105 62.0003 31.9995 59.2107 31.9995 55.7819C31.9995 52.3539 29.2105 49.5651 25.7825 49.5651ZM25.7825 57.9831C24.5694 57.9831 23.5826 56.9955 23.5826 55.7816C23.5826 54.5685 24.5694 53.5817 25.7825 53.5817C26.9956 53.5817 27.9826 54.5685 27.9826 55.7816C27.9826 56.9955 26.9956 57.9831 25.7825 57.9831Z" fill="black"/>
<path d="M46.5205 49.5651C43.0925 49.5651 40.3035 52.3539 40.3035 55.7819C40.3035 59.2107 43.0922 62.0003 46.5205 62.0003C49.9488 62.0003 52.7381 59.2107 52.7381 55.7819C52.7381 52.3539 49.9488 49.5651 46.5205 49.5651ZM46.5205 57.9831C45.3074 57.9831 44.3203 56.9955 44.3203 55.7816C44.3203 54.5685 45.3074 53.5817 46.5205 53.5817C47.7339 53.5817 48.7212 54.5685 48.7212 55.7816C48.7212 56.9955 47.7342 57.9831 46.5205 57.9831Z" fill="black"/>
<path d="M58.5339 21.177C58.1537 20.6851 57.5669 20.3969 56.9451 20.3969H16.9116L15.2304 13.9321C15.0001 13.0471 14.201 12.4293 13.2865 12.4293H5.05483C3.94563 12.4293 3.04639 13.3285 3.04639 14.4377C3.04639 15.5469 3.94563 16.4462 5.05483 16.4462H11.7336L13.4011 22.8587C13.4094 22.8946 13.4188 22.9302 13.4289 22.9653L19.6302 46.8111C19.8605 47.6962 20.6596 48.314 21.5741 48.314H50.7297C51.6442 48.314 52.4433 47.6962 52.6736 46.8111L58.889 22.9107C59.0454 22.3095 58.9142 21.6692 58.5339 21.177ZM49.1768 44.2976H23.127L17.9562 24.4141H54.3478L49.1768 44.2976Z" fill="black"/>
<path d="M28.2671 14.1531C28.6591 14.5449 29.173 14.7409 29.6869 14.7409C30.201 14.7409 30.7152 14.5446 31.1075 14.1523C31.8916 13.3676 31.8914 12.0959 31.1067 11.3118L24.7903 4.99834C24.0057 4.21424 22.7342 4.21451 21.9498 4.99887C21.1657 5.7835 21.166 7.05525 21.9504 7.83934L28.2671 14.1531Z" fill="black"/>
<path d="M42.6255 14.7406C43.1397 14.7406 43.6541 14.5443 44.0465 14.1517L50.3535 7.83907C51.1376 7.05444 51.1368 5.7827 50.3521 4.99887C49.5675 4.21478 48.2958 4.21558 47.512 5.00021L41.2049 11.3129C40.4208 12.0975 40.4216 13.3692 41.2063 14.1533C41.5983 14.5449 42.1119 14.7406 42.6255 14.7406Z" fill="black"/>
<path d="M36.1535 12.9373H36.1541C37.263 12.9373 38.1622 12.0383 38.1625 10.9294L38.1647 2.00898C38.1649 0.899781 37.2659 0.000267792 36.1567 0H36.1565C35.0473 0 34.148 0.898978 34.1478 2.0079L34.1456 10.9283C34.1454 12.0375 35.0443 12.937 36.1535 12.9373Z" fill="black"/>
</g>
<defs>
<clipPath id="clip0_121_5041">
<rect width="62" height="62" fill="white"/>
</clipPath>
</defs>
</svg>
