<svg width="24" height="21" viewBox="0 0 24 21" fill="none" xmlns="http://www.w3.org/2000/svg">
<path fill-rule="evenodd" clip-rule="evenodd" d="M1.6031 5.32048C2.11073 5.13013 2.69861 5.33588 2.91617 5.78006L1.99702 6.12474C2.91617 5.78006 2.91631 5.78035 2.91617 5.78006L2.91565 5.77901C2.91537 5.77844 2.91558 5.77885 2.91565 5.77901L2.91957 5.78676C2.92358 5.79465 2.93046 5.80806 2.94026 5.82661C2.95985 5.86373 2.99104 5.92137 3.03403 5.99661C3.12009 6.14722 3.25301 6.36751 3.43444 6.63422C3.79844 7.1693 4.35146 7.88195 5.10482 8.59184C5.28239 8.75913 5.47031 8.92573 5.6688 9.08926C5.6771 9.09591 5.6853 9.10265 5.6934 9.10948C7.17809 10.326 9.24934 11.3748 11.9971 11.3748C13.206 11.3748 14.2754 11.1728 15.218 10.8482C16.444 10.4259 17.4716 9.79023 18.3127 9.0995C19.2623 8.31957 19.9598 7.48102 20.4203 6.83435C20.6497 6.51228 20.8178 6.24127 20.927 6.05394C20.9815 5.96037 21.0212 5.88798 21.0462 5.8409C21.0588 5.81736 21.0677 5.80017 21.0729 5.78985L21.0779 5.78006C21.2956 5.33613 21.8835 5.13017 22.391 5.32048C22.8986 5.51085 23.1338 6.02524 22.9162 6.46942L21.9971 6.12474C22.9162 6.46942 22.9163 6.46922 22.9162 6.46942L22.914 6.47381L22.9105 6.481L22.899 6.50362C22.8895 6.52228 22.8761 6.54804 22.8589 6.58036C22.8245 6.64499 22.7745 6.73596 22.7086 6.849C22.577 7.07489 22.3811 7.39005 22.1177 7.75982C21.7151 8.32521 21.1491 9.02644 20.4067 9.73353L21.2042 10.4313C21.5947 10.7729 21.5947 11.327 21.2042 11.6687C20.8136 12.0104 20.1805 12.0104 19.7899 11.6687L18.9498 10.9335C18.3855 11.3323 17.7541 11.7084 17.0529 12.0329L17.8352 13.085C18.1364 13.4901 18.0054 14.0321 17.5424 14.2957C17.0795 14.5592 16.4601 14.4445 16.1589 14.0395L15.1734 12.7142C14.4944 12.8964 13.7691 13.0255 12.9971 13.0859V14.4373C12.9971 14.9205 12.5493 15.3123 11.9971 15.3123C11.4448 15.3123 10.9971 14.9205 10.9971 14.4373V13.0861C10.2224 13.0255 9.49721 12.8962 8.82041 12.7146L7.83521 14.0395C7.534 14.4445 6.91455 14.5592 6.45164 14.2957C5.98872 14.0321 5.85763 13.4901 6.15884 13.085L6.94124 12.0329C6.24112 11.7087 5.60952 11.3325 5.04453 10.9333L4.20413 11.6687C3.81361 12.0104 3.18044 12.0104 2.78992 11.6687C2.39939 11.327 2.39939 10.7729 2.78992 10.4313L3.58736 9.73353C2.74236 8.9287 2.12479 8.13044 1.71586 7.52931C1.50667 7.2218 1.35052 6.96358 1.24517 6.77923C1.19246 6.68699 1.15236 6.61304 1.12459 6.56044C1.1107 6.53413 1.09989 6.51314 1.09212 6.49785L1.08273 6.47923L1.07974 6.4732L1.07867 6.47103L1.07824 6.47015C1.07805 6.46977 1.07788 6.46942 1.99702 6.12474L1.07824 6.47015C0.860684 6.02598 1.09547 5.51085 1.6031 5.32048Z" fill="black"/>
</svg>
