<svg width="21" height="20" viewBox="0 0 21 20" fill="none" xmlns="http://www.w3.org/2000/svg">
<path d="M8.52832 10C8.52832 8.9645 9.4098 8.125 10.4971 8.125C11.5843 8.125 12.4658 8.9645 12.4658 10C12.4658 11.0355 11.5843 11.875 10.4971 11.875C9.4098 11.875 8.52832 11.0355 8.52832 10Z" fill="black"/>
<path fill-rule="evenodd" clip-rule="evenodd" d="M1.74707 10.0002C1.74707 11.3663 2.11891 11.8264 2.8626 12.7466C4.34754 14.5838 6.83792 16.6668 10.4971 16.6668C14.1562 16.6668 16.6466 14.5838 18.1315 12.7466C18.8752 11.8264 19.2471 11.3663 19.2471 10.0002C19.2471 8.634 18.8752 8.17394 18.1315 7.25377C16.6466 5.41646 14.1562 3.3335 10.4971 3.3335C6.83792 3.3335 4.34754 5.41646 2.8626 7.25377C2.11891 8.17394 1.74707 8.634 1.74707 10.0002ZM10.4971 6.87516C8.68488 6.87516 7.21582 8.27427 7.21582 10.0002C7.21582 11.7261 8.68488 13.1252 10.4971 13.1252C12.3093 13.1252 13.7783 11.7261 13.7783 10.0002C13.7783 8.27427 12.3093 6.87516 10.4971 6.87516Z" fill="black"/>
</svg>
