<svg width="263" height="56" viewBox="0 0 263 56" fill="none" xmlns="http://www.w3.org/2000/svg">
<path d="M54 48C64.4934 48 73 39.4934 73 29C73 18.5066 64.4934 10 54 10C43.5066 10 35 18.5066 35 29C35 39.4934 43.5066 48 54 48Z" fill="#FF8000"/>
<path d="M54.0001 11.0293C49.7936 11.0502 45.7666 12.736 42.7994 15.7179C39.8324 18.6998 38.1667 22.7352 38.1667 26.9418C38.1667 27.8126 38.2459 28.6043 38.3251 29.4751C40.3834 24.0918 46.0043 20.2126 52.6543 20.2126C55.1952 20.1727 57.7058 20.7672 59.959 21.9422C62.2122 23.1171 64.1368 24.8355 65.5585 26.9418H65.6377C67.1591 26.9166 68.642 27.4203 69.8334 28.3668C69.8991 27.8948 69.9256 27.4182 69.9126 26.9418C69.9126 24.8521 69.5011 22.7829 68.7014 20.8524C67.9017 18.9218 66.7295 17.1676 65.2519 15.69C63.7743 14.2123 62.0201 13.0402 60.0896 12.2406C58.159 11.4409 56.0897 11.0293 54.0001 11.0293Z" fill="#FFCE00"/>
<path d="M69.1354 28.3168C67.9439 27.3703 66.461 26.8666 64.9395 26.8918H64.8605C60.1896 26.8918 55.2812 30.9293 53.8562 35.9959C53.4876 37.1153 53.3816 38.3044 53.5463 39.4713C53.711 40.6382 54.1421 41.7516 54.8062 42.7251H53.302C49.5427 42.7043 45.9109 41.3597 43.0443 38.9275C40.1778 36.4952 38.2597 33.1309 37.627 29.4251C37.1215 30.8767 36.8542 32.4006 36.8354 33.9376C36.8475 35.8197 37.2637 37.6772 38.0559 39.3845C38.848 41.0918 39.9977 42.609 41.427 43.8334C43.2455 45.2115 45.2782 46.2813 47.4437 47.0001C49.3296 47.6421 51.3099 47.9633 53.302 47.9501C56.003 47.9478 58.6722 47.3673 61.1301 46.2476C63.5881 45.1279 65.7778 43.4949 67.552 41.4584C68.7871 40.0933 69.802 38.5442 70.5604 36.8668C70.6395 36.5501 70.7979 36.3126 70.877 35.9959C71.7479 32.7501 71.0354 29.9793 69.1354 28.3168Z" fill="#FF0024"/>
<path d="M19.6533 16.0928C18.2048 16.0928 16.9189 16.3776 15.7959 16.9473C14.6891 17.5007 13.7533 18.3063 12.9883 19.3643C12.2396 20.4222 11.6699 21.6999 11.2793 23.1973C10.8887 24.6947 10.6934 26.3792 10.6934 28.251C10.6934 30.7738 11.0026 32.9303 11.6211 34.7207C12.2559 36.4948 13.2324 37.8538 14.5508 38.7979C15.8691 39.7256 17.57 40.1895 19.6533 40.1895C21.1019 40.1895 22.5505 40.0267 23.999 39.7012C25.4639 39.3757 27.0508 38.9118 28.7598 38.3096V44.6572C27.181 45.3083 25.6266 45.7721 24.0967 46.0488C22.5667 46.3418 20.8496 46.4883 18.9453 46.4883C15.2669 46.4883 12.2396 45.7314 9.86328 44.2178C7.50326 42.6878 5.75358 40.5557 4.61426 37.8213C3.47493 35.0706 2.90527 31.8643 2.90527 28.2021C2.90527 25.5003 3.27148 23.0264 4.00391 20.7803C4.73633 18.5342 5.81055 16.5892 7.22656 14.9453C8.64258 13.3014 10.3923 12.0319 12.4756 11.1367C14.5589 10.2415 16.9515 9.79395 19.6533 9.79395C21.4274 9.79395 23.2015 10.0218 24.9756 10.4775C26.766 10.917 28.4749 11.5273 30.1025 12.3086L27.6611 18.4609C26.3265 17.8262 24.9837 17.2728 23.6328 16.8008C22.2819 16.3288 20.9554 16.0928 19.6533 16.0928Z" fill="white"/>
<path d="M110.962 15.1924C114.054 15.1924 116.39 15.9899 117.969 17.585C119.564 19.1637 120.361 21.7028 120.361 25.2021V43H112.891V27.0576C112.891 25.1045 112.557 23.6315 111.89 22.6387C111.222 21.6458 110.189 21.1494 108.789 21.1494C106.82 21.1494 105.42 21.8574 104.59 23.2734C103.76 24.6732 103.345 26.6833 103.345 29.3037V43H95.8985V27.0576C95.8985 25.7555 95.7521 24.665 95.4591 23.7861C95.1661 22.9072 94.7185 22.248 94.1163 21.8086C93.5141 21.3691 92.741 21.1494 91.797 21.1494C90.4135 21.1494 89.323 21.4993 88.5255 22.1992C87.7442 22.8828 87.1827 23.9001 86.8409 25.251C86.5154 26.5856 86.3526 28.2214 86.3526 30.1582V43H78.9062V15.7051H84.5948L85.5958 19.1963H86.0107C86.5641 18.2523 87.256 17.4873 88.086 16.9014C88.9324 16.3154 89.8601 15.8841 90.8692 15.6074C91.8784 15.3307 92.9037 15.1924 93.9454 15.1924C95.9474 15.1924 97.6401 15.5179 99.0235 16.1689C100.423 16.82 101.497 17.8291 102.246 19.1963H102.905C103.719 17.7965 104.867 16.7793 106.348 16.1445C107.845 15.5098 109.383 15.1924 110.962 15.1924ZM143.213 15.1924C146.289 15.1924 148.771 16.3887 150.659 18.7812C152.563 21.1738 153.516 24.6813 153.516 29.3037C153.516 32.3962 153.068 35.0003 152.173 37.1162C151.278 39.2158 150.041 40.8027 148.462 41.877C146.883 42.9512 145.068 43.4883 143.018 43.4883C141.699 43.4883 140.568 43.3255 139.624 43C138.68 42.6582 137.874 42.2269 137.207 41.7061C136.54 41.1689 135.962 40.5993 135.474 39.9971H135.083C135.213 40.6481 135.311 41.3154 135.376 41.999C135.441 42.6826 135.474 43.3499 135.474 44.001V55.0117H128.027V15.7051H134.082L135.132 19.2451H135.474C135.962 18.5127 136.556 17.8372 137.256 17.2188C137.956 16.6003 138.794 16.112 139.771 15.7539C140.763 15.3796 141.911 15.1924 143.213 15.1924ZM140.82 21.1494C139.518 21.1494 138.485 21.418 137.72 21.9551C136.955 22.4922 136.393 23.2979 136.035 24.3721C135.693 25.4463 135.506 26.8053 135.474 28.4492V29.2549C135.474 31.0127 135.636 32.502 135.962 33.7227C136.304 34.9434 136.865 35.8711 137.646 36.5059C138.444 37.1406 139.535 37.458 140.918 37.458C142.057 37.458 142.993 37.1406 143.726 36.5059C144.458 35.8711 145.003 34.9434 145.361 33.7227C145.736 32.4857 145.923 30.9801 145.923 29.2061C145.923 26.5368 145.508 24.5267 144.678 23.1758C143.848 21.8249 142.562 21.1494 140.82 21.1494ZM174.902 15.1924C175.277 15.1924 175.708 15.2168 176.196 15.2656C176.701 15.2982 177.108 15.347 177.417 15.4121L176.855 22.3945C176.611 22.3132 176.261 22.2562 175.806 22.2236C175.366 22.1748 174.984 22.1504 174.658 22.1504C173.698 22.1504 172.762 22.2725 171.851 22.5166C170.955 22.7607 170.15 23.1595 169.434 23.7129C168.717 24.25 168.148 24.9661 167.725 25.8613C167.318 26.7402 167.114 27.8226 167.114 29.1084V43H159.668V15.7051H165.308L166.406 20.2949H166.772C167.31 19.3672 167.977 18.5208 168.774 17.7559C169.588 16.9746 170.508 16.3561 171.533 15.9004C172.575 15.4284 173.698 15.1924 174.902 15.1924ZM193.555 15.1436C197.217 15.1436 200.024 15.9411 201.978 17.5361C203.931 19.1312 204.907 21.5563 204.907 24.8115V43H199.707L198.267 39.2891H198.071C197.29 40.2656 196.493 41.0632 195.679 41.6816C194.865 42.3001 193.929 42.7559 192.871 43.0488C191.813 43.3418 190.527 43.4883 189.014 43.4883C187.402 43.4883 185.954 43.179 184.668 42.5605C183.398 41.9421 182.397 40.998 181.665 39.7285C180.933 38.4427 180.566 36.8151 180.566 34.8457C180.566 31.9486 181.584 29.8164 183.618 28.4492C185.653 27.0658 188.704 26.3008 192.773 26.1543L197.51 26.0078V24.8115C197.51 23.3792 197.135 22.3294 196.387 21.6621C195.638 20.9948 194.596 20.6611 193.262 20.6611C191.943 20.6611 190.649 20.8483 189.38 21.2227C188.11 21.597 186.841 22.069 185.571 22.6387L183.105 17.6094C184.554 16.8444 186.174 16.2422 187.964 15.8027C189.771 15.3633 191.634 15.1436 193.555 15.1436ZM197.51 30.3535L194.629 30.4512C192.22 30.5163 190.544 30.9476 189.6 31.7451C188.672 32.5426 188.208 33.5924 188.208 34.8945C188.208 36.0339 188.542 36.8477 189.209 37.3359C189.876 37.8079 190.747 38.0439 191.821 38.0439C193.416 38.0439 194.759 37.5719 195.85 36.6279C196.956 35.6839 197.51 34.3411 197.51 32.5996V30.3535ZM231.641 34.8945C231.641 36.75 231.201 38.3206 230.322 39.6064C229.46 40.876 228.166 41.8444 226.44 42.5117C224.715 43.1628 222.567 43.4883 219.995 43.4883C218.091 43.4883 216.455 43.3662 215.088 43.1221C213.737 42.8779 212.37 42.471 210.986 41.9014V35.749C212.467 36.4163 214.054 36.9697 215.747 37.4092C217.456 37.8324 218.953 38.0439 220.239 38.0439C221.688 38.0439 222.721 37.8324 223.34 37.4092C223.975 36.9697 224.292 36.4001 224.292 35.7002C224.292 35.2445 224.162 34.8376 223.901 34.4795C223.657 34.1051 223.12 33.6901 222.29 33.2344C221.46 32.7624 220.158 32.152 218.384 31.4033C216.675 30.6872 215.267 29.9629 214.16 29.2305C213.07 28.498 212.256 27.6354 211.719 26.6426C211.198 25.6335 210.938 24.3558 210.938 22.8096C210.938 20.2868 211.914 18.3906 213.867 17.1211C215.837 15.8353 218.465 15.1924 221.753 15.1924C223.446 15.1924 225.057 15.3633 226.587 15.7051C228.133 16.0469 229.72 16.5921 231.348 17.3408L229.102 22.7119C227.751 22.126 226.473 21.6458 225.269 21.2715C224.08 20.8971 222.868 20.71 221.631 20.71C220.54 20.71 219.718 20.8564 219.165 21.1494C218.612 21.4424 218.335 21.89 218.335 22.4922C218.335 22.9316 218.473 23.3223 218.75 23.6641C219.043 24.0059 219.596 24.3883 220.41 24.8115C221.24 25.2184 222.453 25.7474 224.048 26.3984C225.594 27.0332 226.937 27.7005 228.076 28.4004C229.215 29.084 230.094 29.9385 230.713 30.9639C231.331 31.973 231.641 33.2832 231.641 34.8945ZM256.494 34.8945C256.494 36.75 256.055 38.3206 255.176 39.6064C254.313 40.876 253.019 41.8444 251.294 42.5117C249.569 43.1628 247.42 43.4883 244.849 43.4883C242.944 43.4883 241.309 43.3662 239.941 43.1221C238.59 42.8779 237.223 42.471 235.84 41.9014V35.749C237.321 36.4163 238.908 36.9697 240.601 37.4092C242.31 37.8324 243.807 38.0439 245.093 38.0439C246.541 38.0439 247.575 37.8324 248.193 37.4092C248.828 36.9697 249.146 36.4001 249.146 35.7002C249.146 35.2445 249.015 34.8376 248.755 34.4795C248.511 34.1051 247.974 33.6901 247.144 33.2344C246.313 32.7624 245.011 32.152 243.237 31.4033C241.528 30.6872 240.12 29.9629 239.014 29.2305C237.923 28.498 237.109 27.6354 236.572 26.6426C236.051 25.6335 235.791 24.3558 235.791 22.8096C235.791 20.2868 236.768 18.3906 238.721 17.1211C240.69 15.8353 243.319 15.1924 246.606 15.1924C248.299 15.1924 249.91 15.3633 251.44 15.7051C252.987 16.0469 254.574 16.5921 256.201 17.3408L253.955 22.7119C252.604 22.126 251.326 21.6458 250.122 21.2715C248.934 20.8971 247.721 20.71 246.484 20.71C245.394 20.71 244.572 20.8564 244.019 21.1494C243.465 21.4424 243.188 21.89 243.188 22.4922C243.188 22.9316 243.327 23.3223 243.604 23.6641C243.896 24.0059 244.45 24.3883 245.264 24.8115C246.094 25.2184 247.306 25.7474 248.901 26.3984C250.448 27.0332 251.79 27.7005 252.93 28.4004C254.069 29.084 254.948 29.9385 255.566 30.9639C256.185 31.973 256.494 33.2832 256.494 34.8945Z" fill="white"/>
</svg>
