<svg width="34" height="34" viewBox="0 0 34 34" fill="none" xmlns="http://www.w3.org/2000/svg">
<path d="M25.3236 24.8838C24.7497 24.8851 24.1811 24.7727 23.6508 24.5532C23.1205 24.3336 22.6389 24.0112 22.2339 23.6046L17.7714 19.1421C17.6134 18.992 17.4038 18.9083 17.1859 18.9083C16.968 18.9083 16.7585 18.992 16.6005 19.1421L12.121 23.6216C11.7161 24.0284 11.2345 24.3509 10.7042 24.5705C10.1738 24.7901 9.60523 24.9023 9.03124 24.9008H8.15149L13.804 30.5533C15.5677 32.3171 18.4301 32.3171 20.1939 30.5533L25.8612 24.8838H25.3236ZM9.03124 9.09934C10.2 9.09934 11.2965 9.55409 12.121 10.3786L16.6005 14.8581C16.6775 14.9352 16.7689 14.9964 16.8695 15.0381C16.9702 15.0798 17.078 15.1013 17.187 15.1013C17.2959 15.1013 17.4038 15.0798 17.5045 15.0381C17.6051 14.9964 17.6965 14.9352 17.7735 14.8581L22.236 10.3956C22.6407 9.98904 23.1219 9.66667 23.6518 9.4471C24.1818 9.22754 24.75 9.11512 25.3236 9.11634H25.8612L20.1939 3.44897C19.3463 2.60199 18.1971 2.12622 16.9989 2.12622C15.8007 2.12622 14.6515 2.60199 13.804 3.44897L8.15149 9.10146L9.03124 9.09934Z" fill="#2AA952"/>
<path d="M30.5512 13.8039L27.1257 10.3784C27.0488 10.41 26.9665 10.4266 26.8834 10.4273H25.3258C24.5204 10.4273 23.732 10.7545 23.1647 11.324L18.7022 15.7865C18.5037 15.986 18.2678 16.1443 18.0079 16.2524C17.7481 16.3604 17.4695 16.416 17.1881 16.416C16.9067 16.416 16.6281 16.3604 16.3682 16.2524C16.1084 16.1443 15.8725 15.986 15.674 15.7865L11.1945 11.3049C10.6198 10.7326 9.84238 10.4103 9.03129 10.4082H7.11879C7.0395 10.4075 6.961 10.3924 6.88716 10.3635L3.44891 13.8039C1.68516 15.5677 1.68516 18.43 3.44891 20.1959L6.88716 23.6342C6.96019 23.6048 7.03796 23.5889 7.11666 23.5874H9.03129C9.83879 23.5874 10.625 23.2623 11.1945 22.6928L15.6719 18.2112C16.0804 17.8222 16.6229 17.6052 17.187 17.6052C17.7511 17.6052 18.2936 17.8222 18.7022 18.2112L23.1647 22.6737C23.732 23.2432 24.5204 23.5683 25.3258 23.5683H26.8834C26.9684 23.5683 27.0513 23.5895 27.1257 23.6193L30.5512 20.1938C32.3149 18.43 32.3149 15.5677 30.5512 13.8039Z" fill="#2AA952"/>
</svg>
