<svg width="15" height="17" viewBox="0 0 15 17" fill="none" xmlns="http://www.w3.org/2000/svg">
<path d="M12.375 3.5L11.7243 13.5107C11.6673 14.3875 11.6388 14.8259 11.4542 15.1583C11.2916 15.451 11.0464 15.6863 10.7509 15.8332C10.4153 16 9.98682 16 9.13004 16H5.86994C5.01316 16 4.58477 16 4.2491 15.8332C3.95358 15.6863 3.70838 15.451 3.54582 15.1583C3.36118 14.8259 3.33269 14.3875 3.2757 13.5107L2.625 3.5M1 3.5H14M10.75 3.5L10.5301 2.82339C10.317 2.16771 10.2104 1.83987 10.0128 1.59748C9.83829 1.38344 9.61421 1.21777 9.36103 1.11565C9.0743 1 8.73744 1 8.06355 1H6.93645C6.26256 1 5.9257 1 5.63898 1.11565C5.38581 1.21777 5.16169 1.38344 4.98717 1.59748C4.78954 1.83987 4.683 2.16771 4.4699 2.82339L4.25 3.5M9.125 6.83333V12.6667M5.875 6.83333V12.6667" stroke="white" stroke-width="2" stroke-linecap="round" stroke-linejoin="round"/>
</svg>
