<svg width="48" height="30" viewBox="0 0 48 30" fill="none" xmlns="http://www.w3.org/2000/svg">
<path d="M45 21.6666C45 23.0341 43.209 24.1428 41 24.1428H7C4.791 24.1428 3 23.0341 3 21.6666V8.0476C3 6.68013 4.791 5.57141 7 5.57141H41C43.209 5.57141 45 6.68013 45 8.0476V21.6666Z" fill="#1565C0"/>
<path d="M15.186 11.7618L12.56 16.6102C12.56 16.6102 11.893 14.5593 11.827 14.3018C10.332 12.1902 8.12598 12.3078 8.12598 12.3078L10.726 18.5714V18.5701H13.887L18.258 11.7618H15.186ZM17.689 18.5714H20.56L22.296 11.7618H19.389L17.689 18.5714ZM38.008 11.7618H34.987L30.277 18.5714H33.129L33.717 17.5988H37.313L37.619 18.5714H40.232L38.008 11.7618ZM34.513 16.2982L36.076 13.7248L36.894 16.2982H34.513ZM26.369 13.7465C26.369 13.3714 26.867 13.0922 28.295 13.0922C29.223 13.0922 30.286 13.5094 30.286 13.5094L30.752 12.08C30.752 12.08 29.394 11.7612 28.061 11.7612C25.042 11.7612 23.485 12.6551 23.485 13.7868C23.485 15.8333 27.464 15.5529 27.464 16.604C27.464 16.7842 27.233 17.2008 25.576 17.2008C23.914 17.2008 22.817 16.8238 22.817 16.8238L22.322 18.1956C22.322 18.1956 23.385 18.5708 25.439 18.5708C27.498 18.5708 30.354 17.6174 30.354 16.2481C30.354 14.6008 26.369 14.4819 26.369 13.7465Z" fill="white"/>
<path d="M12.2119 15.4421L11.2459 12.5028C11.2459 12.5028 10.8089 11.8658 9.67291 11.8658C8.53691 11.8658 5.23291 11.8658 5.23291 11.8658C5.23291 11.8658 10.8939 12.9009 12.2119 15.4421Z" fill="#FFC107"/>
</svg>
